<svg width="156" height="74" viewBox="0 0 156 74" fill="none" xmlns="http://www.w3.org/2000/svg">
<path fill-rule="evenodd" clip-rule="evenodd" d="M77.1929 16.0266C71.8838 14.6126 68.5742 13.9135 67.2992 27.7461C67.2992 31.1348 68.4729 34.2713 70.4665 36.8299C67.9653 38.1681 65.0582 38.9344 61.9567 38.9344C52.5918 38.9344 45 31.9476 45 23.329C46.2918 9.31462 49.672 10.2164 55.104 11.6656C57.0485 12.1844 59.2558 12.7733 61.7244 12.7733C64.23 12.7733 66.3881 12.153 68.2687 11.6124C72.2783 10.46 75.0268 9.66999 77.1929 16.0266Z" fill="#EC7D7D"/>
<path d="M104 29.3525C104 37.9711 96.4082 44.9578 87.0433 44.9578C77.6783 44.9578 71.4803 37.3282 70.0866 29.3525C71.248 12.0299 76.7492 18.2541 86.1141 18.2541C95.4791 18.2541 100.687 10.1312 104 29.3525Z" fill="#EDEF95"/>
<path fill-rule="evenodd" clip-rule="evenodd" d="M56.6411 1.20374C59.0176 1.60706 61.1992 2.9972 62.3783 5.10709C63.5574 7.21694 63.4612 9.55811 62.3495 11.418C60.0919 10.965 57.988 9.54242 56.8089 7.43254C55.6298 5.32269 55.6483 3.01394 56.6411 1.20374Z" fill="#81A670"/>
<path fill-rule="evenodd" clip-rule="evenodd" d="M86.2609 16.6975C88.5366 16.2189 90.5798 14.7916 91.6233 12.7043C92.6668 10.6169 92.4689 8.35257 91.3125 6.59209C89.1538 7.11437 87.1869 8.57018 86.1435 10.6576C85.1 12.745 85.2214 14.9807 86.2609 16.6975Z" fill="#81A670"/>
<path d="M2.66 64.04C2.38 64.04 2.18667 63.72 2.08 63.08C1.98667 62.4267 1.90667 61.28 1.84 59.64L1.78 58.18C1.75333 57.6733 1.66 56.8933 1.5 55.84C1.48667 55.7067 1.43333 55.3 1.34 54.62C1.24667 53.94 1.2 53.34 1.2 52.82C1.2 52.74 1.24 52.64 1.32 52.52C1.4 52.3867 1.5 52.32 1.62 52.32C1.79333 52.32 1.90667 52.4 1.96 52.56C2.02667 52.72 2.06667 52.88 2.08 53.04C2.10667 53.1867 2.12 53.28 2.12 53.32C2.2 53.5467 2.26 53.86 2.3 54.26C2.34 54.6467 2.37333 55.06 2.4 55.5C2.45333 56.3667 2.50667 56.9867 2.56 57.36L3.18 56.48C4.04667 55.2 4.82667 54.1733 5.52 53.4C6.22667 52.6267 6.91333 52.2533 7.58 52.28C7.63333 52.3333 7.66 52.4 7.66 52.48C7.66 52.6133 7.59333 52.7667 7.46 52.94C7.32667 53.1133 7.12667 53.34 6.86 53.62L6.44 54.06C6.29333 54.2333 5.84667 54.7267 5.1 55.54C4.58 56.0867 4.15333 56.5533 3.82 56.94C3.48667 57.3267 3.23333 57.68 3.06 58C3.64667 58.8133 4.34 59.5333 5.14 60.16C5.95333 60.7867 7.01333 61.5267 8.32 62.38L8.92 62.76C9.16 62.8533 9.34667 62.98 9.48 63.14C9.62667 63.2867 9.7 63.44 9.7 63.6C9.7 63.68 9.68 63.76 9.64 63.84C9.54667 64 9.43333 64.08 9.3 64.08C9.15333 64.08 8.89333 63.9867 8.52 63.8L7.44 63.04C6.26667 62.2667 5.26667 61.5467 4.44 60.88C3.61333 60.2133 3.04 59.58 2.72 58.98L2.84 60.48C2.96 61.8533 3.02 62.7733 3.02 63.24C3.02 63.5733 2.99333 63.7933 2.94 63.9C2.88667 63.9933 2.79333 64.04 2.66 64.04ZM15.647 64C14.2604 64 13.0537 63.76 12.027 63.28C11.0137 62.7867 10.507 61.9267 10.507 60.7C10.507 60.26 10.6404 59.8333 10.907 59.42C11.1737 59.0067 11.567 58.6733 12.087 58.42C12.607 58.1533 13.2404 58.02 13.987 58.02C14.5604 58.02 15.047 58.0467 15.447 58.1C15.847 58.1533 16.307 58.3 16.827 58.54C17.347 58.78 17.887 59.16 18.447 59.68C18.2337 58.76 17.9137 57.9533 17.487 57.26C17.0604 56.5667 16.5804 56.0333 16.047 55.66C15.527 55.2733 15.0137 55.08 14.507 55.08C14.267 55.08 14.0404 55.1267 13.827 55.22C13.627 55.3 13.3804 55.42 13.087 55.58C12.7537 55.7933 12.507 55.9 12.347 55.9C12.2804 55.9 12.2204 55.88 12.167 55.84C12.127 55.7867 12.107 55.7267 12.107 55.66C12.107 55.1267 12.3404 54.7133 12.807 54.42C13.287 54.1267 13.867 53.9933 14.547 54.02C15.4804 54.0733 16.3337 54.4733 17.107 55.22C17.8804 55.9533 18.487 56.8667 18.927 57.96C19.3804 59.0533 19.607 60.1267 19.607 61.18C19.607 61.3533 19.5937 61.6 19.567 61.92L18.927 61.88C18.4204 60.8533 17.767 60.1267 16.967 59.7C16.1804 59.26 15.387 59.04 14.587 59.04C13.5604 59.04 12.827 59.1933 12.387 59.5C11.947 59.8067 11.727 60.2533 11.727 60.84C11.727 61.4533 12.0337 61.9467 12.647 62.32C13.2604 62.6933 14.047 62.88 15.007 62.88C15.5404 62.88 15.967 62.8533 16.287 62.8C16.607 62.7333 16.9404 62.6467 17.287 62.54C17.567 62.4467 17.8137 62.38 18.027 62.34C18.2404 62.3 18.5137 62.28 18.847 62.28C19.2204 62.28 19.4537 62.3067 19.547 62.36C19.6537 62.4133 19.707 62.5333 19.707 62.72C19.707 62.8533 19.4337 63.02 18.887 63.22C18.3404 63.42 17.727 63.6 17.047 63.76C16.367 63.92 15.9004 64 15.647 64ZM22.4078 63.86C22.1145 62.4067 21.8878 60.6867 21.7278 58.7C21.5811 56.7 21.5078 54.7667 21.5078 52.9C21.5078 51.9667 21.5278 51.14 21.5678 50.42C21.5678 50.2467 21.7011 50.16 21.9678 50.16C22.1811 50.16 22.3145 50.2133 22.3678 50.32C22.4345 50.4267 22.4678 50.5933 22.4678 50.82C22.4678 52.98 22.5078 54.8267 22.5878 56.36C22.6678 57.88 22.7745 59.52 22.9078 61.28C22.9878 62.4133 23.0411 63.18 23.0678 63.58C23.0811 63.7933 22.9678 63.9 22.7278 63.9C22.6478 63.9 22.5411 63.8867 22.4078 63.86ZM29.8072 64C28.4205 64 27.2139 63.76 26.1872 63.28C25.1739 62.7867 24.6672 61.9267 24.6672 60.7C24.6672 60.26 24.8005 59.8333 25.0672 59.42C25.3339 59.0067 25.7272 58.6733 26.2472 58.42C26.7672 58.1533 27.4005 58.02 28.1472 58.02C28.7205 58.02 29.2072 58.0467 29.6072 58.1C30.0072 58.1533 30.4672 58.3 30.9872 58.54C31.5072 58.78 32.0472 59.16 32.6072 59.68C32.3939 58.76 32.0739 57.9533 31.6472 57.26C31.2205 56.5667 30.7405 56.0333 30.2072 55.66C29.6872 55.2733 29.1739 55.08 28.6672 55.08C28.4272 55.08 28.2005 55.1267 27.9872 55.22C27.7872 55.3 27.5405 55.42 27.2472 55.58C26.9139 55.7933 26.6672 55.9 26.5072 55.9C26.4405 55.9 26.3805 55.88 26.3272 55.84C26.2872 55.7867 26.2672 55.7267 26.2672 55.66C26.2672 55.1267 26.5005 54.7133 26.9672 54.42C27.4472 54.1267 28.0272 53.9933 28.7072 54.02C29.6405 54.0733 30.4939 54.4733 31.2672 55.22C32.0405 55.9533 32.6472 56.8667 33.0872 57.96C33.5405 59.0533 33.7672 60.1267 33.7672 61.18C33.7672 61.3533 33.7539 61.6 33.7272 61.92L33.0872 61.88C32.5805 60.8533 31.9272 60.1267 31.1272 59.7C30.3405 59.26 29.5472 59.04 28.7472 59.04C27.7205 59.04 26.9872 59.1933 26.5472 59.5C26.1072 59.8067 25.8872 60.2533 25.8872 60.84C25.8872 61.4533 26.1939 61.9467 26.8072 62.32C27.4205 62.6933 28.2072 62.88 29.1672 62.88C29.7005 62.88 30.1272 62.8533 30.4472 62.8C30.7672 62.7333 31.1005 62.6467 31.4472 62.54C31.7272 62.4467 31.9739 62.38 32.1872 62.34C32.4005 62.3 32.6739 62.28 33.0072 62.28C33.3805 62.28 33.6139 62.3067 33.7072 62.36C33.8139 62.4133 33.8672 62.5333 33.8672 62.72C33.8672 62.8533 33.5939 63.02 33.0472 63.22C32.5005 63.42 31.8872 63.6 31.2072 63.76C30.5272 63.92 30.0605 64 29.8072 64ZM35.568 61.64C35.7546 61.4933 35.9346 61.42 36.108 61.42C36.268 61.42 36.4213 61.4667 36.568 61.56C36.728 61.6533 36.888 61.7733 37.048 61.92C37.208 62.0533 37.3346 62.1533 37.428 62.22C37.7346 62.46 38.1546 62.6467 38.688 62.78C39.2213 62.9133 39.788 62.98 40.388 62.98C41.068 62.98 41.6746 62.8533 42.208 62.6C42.7546 62.3333 43.028 61.98 43.028 61.54C43.028 61.14 42.8813 60.8267 42.588 60.6C42.2946 60.36 41.9413 60.1867 41.528 60.08C41.1146 59.9733 40.568 59.8733 39.888 59.78C38.968 59.6733 38.2346 59.54 37.688 59.38C37.1546 59.22 36.728 58.96 36.408 58.6C36.088 58.2267 35.928 57.7067 35.928 57.04C35.928 56.32 36.268 55.7867 36.948 55.44C37.628 55.08 38.408 54.9 39.288 54.9C40.088 54.9 40.768 55.0733 41.328 55.42C41.9013 55.7533 42.1946 56.2333 42.208 56.86C42.2346 57.22 42.1813 57.5067 42.048 57.72C41.9146 57.92 41.7546 58.02 41.568 58.02C41.4613 58.02 41.368 57.98 41.288 57.9C41.2213 57.82 41.188 57.7133 41.188 57.58C41.188 57.3667 41.2613 57.1333 41.408 56.88C41.3413 56.56 41.1213 56.32 40.748 56.16C40.388 56 39.9546 55.92 39.448 55.92C38.7013 55.92 38.108 56.06 37.668 56.34C37.228 56.6067 37.008 56.9267 37.008 57.3C37.008 57.7 37.168 58.0067 37.488 58.22C37.808 58.4333 38.1946 58.5867 38.648 58.68C39.1146 58.76 39.7746 58.84 40.628 58.92C41.3346 59.0133 41.908 59.1267 42.348 59.26C42.8013 59.3933 43.1813 59.6533 43.488 60.04C43.7946 60.4133 43.948 60.9533 43.948 61.66C43.948 62.3933 43.608 62.9733 42.928 63.4C42.248 63.8133 41.4346 64.02 40.488 64.02C39.2746 64.02 38.188 63.8133 37.228 63.4C36.2813 62.9867 35.728 62.4 35.568 61.64ZM47.8438 63.96C47.7771 63.9733 47.7038 63.72 47.6238 63.2C47.5571 62.68 47.4638 61.7867 47.3438 60.52C47.1571 58.44 46.9438 56.5333 46.7038 54.8C46.4771 53.0667 46.1904 51.5667 45.8438 50.3C45.8171 50.1933 45.8571 50.1 45.9638 50.02C46.0704 49.94 46.2171 49.9 46.4038 49.9C46.4971 49.9 46.5704 49.9067 46.6238 49.92C46.9571 50.8267 47.1904 51.6267 47.3238 52.32C47.4704 53.0133 47.6038 53.8667 47.7238 54.88L47.8238 55.66C48.6238 55.18 49.3571 54.94 50.0238 54.94C51.2371 54.94 52.0971 55.4933 52.6038 56.6C53.1238 57.6933 53.3838 59.2533 53.3838 61.28C53.3838 62.0533 53.3371 62.7067 53.2438 63.24C53.1504 63.76 53.0371 64.02 52.9038 64.02C52.7304 64.02 52.5371 63.8933 52.3238 63.64V62.98L52.3438 60.8C52.3438 60.3867 52.3304 59.8733 52.3038 59.26C52.2638 58.22 52.0504 57.4333 51.6638 56.9C51.2904 56.3667 50.6438 56.1 49.7238 56.1C49.1104 56.1 48.5371 56.3267 48.0038 56.78C48.0038 57.2867 48.0238 57.8067 48.0638 58.34C48.1171 58.8733 48.1771 59.3933 48.2438 59.9C48.3371 60.6067 48.4038 61.2333 48.4438 61.78C48.4971 62.3133 48.5238 62.9067 48.5238 63.56C48.4438 63.72 48.3504 63.8267 48.2438 63.88C48.1504 63.9333 48.0171 63.96 47.8438 63.96ZM57.0359 64.08C56.8493 64.1333 56.7426 64.16 56.7159 64.16C56.6093 64.16 56.4959 64.1067 56.3759 64C55.9359 63.3467 55.6159 62.2067 55.4159 60.58C55.2293 58.9533 55.1359 57.5533 55.1359 56.38C55.1359 56.1933 55.2693 56.1 55.5359 56.1C55.9359 56.1 56.1359 56.32 56.1359 56.76C56.1359 56.88 56.1293 56.98 56.1159 57.06C56.2359 56.78 56.4626 56.4933 56.7959 56.2C57.1293 55.9067 57.5159 55.66 57.9559 55.46C58.3959 55.26 58.8426 55.16 59.2959 55.16C60.7226 55.16 61.7626 55.7933 62.4159 57.06C63.0693 58.3133 63.3959 59.8733 63.3959 61.74C63.3959 62.38 63.3293 62.8933 63.1959 63.28C63.0626 63.6533 62.8826 63.84 62.6559 63.84C62.4159 63.84 62.2959 63.7667 62.2959 63.62C62.3893 62.9133 62.4359 62.22 62.4359 61.54C62.4359 59.82 62.1359 58.52 61.5359 57.64C60.9359 56.7467 60.1426 56.3 59.1559 56.3C58.6759 56.3 58.2093 56.42 57.7559 56.66C57.3159 56.9 56.9559 57.2333 56.6759 57.66C56.4093 58.0867 56.2759 58.5733 56.2759 59.12C56.2759 59.7333 56.3093 60.2667 56.3759 60.72C56.4426 61.1733 56.5493 61.72 56.6959 62.36C56.8559 62.9867 56.9693 63.56 57.0359 64.08ZM66.3392 64.02C66.0326 64.02 65.7859 63.5733 65.5992 62.68C65.4126 61.7733 65.2926 60.9933 65.2392 60.34C65.1859 59.6867 65.1126 58.6533 65.0192 57.24C65.0059 57.0133 64.9992 56.72 64.9992 56.36C64.9992 55.9067 65.0326 55.5933 65.0992 55.42C65.1792 55.2467 65.3059 55.16 65.4792 55.16C65.6259 55.16 65.7392 55.1933 65.8192 55.26C65.9126 55.3133 65.9926 55.4067 66.0592 55.54L66.0392 56.34C66.0392 57.1933 66.0792 58 66.1592 58.76C66.2526 59.52 66.3926 60.54 66.5792 61.82C66.6859 62.38 66.7592 62.84 66.7992 63.2C66.8259 63.3867 66.7926 63.5733 66.6992 63.76C66.6059 63.9333 66.4859 64.02 66.3392 64.02ZM65.8392 53.02C65.5459 53.02 65.3259 52.9067 65.1792 52.68C65.0459 52.4533 64.9792 52.1733 64.9792 51.84C64.9792 51.6933 64.9859 51.5867 64.9992 51.52C64.9859 51.3067 65.1059 51.2 65.3592 51.2C65.5459 51.2 65.7326 51.2467 65.9192 51.34C66.1192 51.42 66.1792 51.48 66.0992 51.52C66.2326 51.8667 66.2992 52.14 66.2992 52.34C66.2992 52.5133 66.2592 52.6533 66.1792 52.76C66.0992 52.8533 65.9859 52.94 65.8392 53.02ZM70.093 64.02C69.7596 64.02 69.593 63.8267 69.593 63.44C69.593 63.36 69.6196 63.1933 69.673 62.94C69.7396 62.6867 69.773 62.4067 69.773 62.1V61.12V59.68C69.7063 58.7333 69.5396 57.58 69.273 56.22C68.9796 54.7267 68.753 53.34 68.593 52.06C68.633 51.8333 68.7396 51.72 68.913 51.72C69.1396 51.72 69.413 52.32 69.733 53.52C70.053 54.7067 70.3796 56.6733 70.713 59.42C70.9796 58.7533 71.3463 58.08 71.813 57.4C72.2796 56.7067 72.773 56.1333 73.293 55.68C73.813 55.2267 74.2663 55 74.653 55C74.813 55 74.913 55.0467 74.953 55.14C75.0063 55.2333 75.0263 55.3667 75.013 55.54C74.2263 56.2333 73.433 57.04 72.633 57.96C71.833 58.88 71.433 59.5933 71.433 60.1C71.433 60.4067 71.6863 60.76 72.193 61.16C72.6996 61.5467 73.3263 61.8933 74.073 62.2C74.8196 62.4933 75.5196 62.66 76.173 62.7C76.4263 62.74 76.553 62.8933 76.553 63.16C76.553 63.6133 76.1263 63.84 75.273 63.84C74.593 63.84 73.8463 63.5667 73.033 63.02C72.233 62.4733 71.5396 61.9 70.953 61.3C70.913 61.5267 70.8863 61.7267 70.873 61.9C70.8596 62.06 70.8463 62.2 70.833 62.32C70.7796 62.9067 70.7063 63.34 70.613 63.62C70.533 63.8867 70.3596 64.02 70.093 64.02ZM81.5025 64.02C80.7158 64.02 80.0025 63.8467 79.3625 63.5C78.7358 63.14 78.2425 62.6467 77.8825 62.02C77.5358 61.38 77.3625 60.6533 77.3625 59.84C77.3625 58.5067 77.8492 57.5133 78.8225 56.86C79.8092 56.2067 81.0158 55.88 82.4425 55.88C83.0958 55.88 83.7025 56.04 84.2625 56.36C84.8358 56.68 85.2958 57.14 85.6425 57.74C85.9892 58.34 86.1625 59.0333 86.1625 59.82C86.1625 60.6733 85.9425 61.42 85.5025 62.06C85.0625 62.6867 84.4825 63.1733 83.7625 63.52C83.0558 63.8533 82.3025 64.02 81.5025 64.02ZM81.2825 62.88C82.5225 62.88 83.4625 62.6 84.1025 62.04C84.7425 61.48 85.0625 60.66 85.0625 59.58C85.0625 58.8467 84.8092 58.2133 84.3025 57.68C83.8092 57.1467 83.1158 56.88 82.2225 56.88C81.6225 56.88 81.0158 56.9933 80.4025 57.22C79.7892 57.4467 79.2825 57.7867 78.8825 58.24C78.4825 58.6933 78.2825 59.24 78.2825 59.88C78.2825 60.4133 78.4158 60.9133 78.6825 61.38C78.9492 61.8333 79.3092 62.2 79.7625 62.48C80.2292 62.7467 80.7358 62.88 81.2825 62.88ZM91.1931 64.02C90.8065 64.02 90.2998 63.4467 89.6731 62.3C89.0598 61.14 88.3465 59.6733 87.5331 57.9L86.9531 56.66C86.9531 56.5267 87.0331 56.4 87.1931 56.28C87.3531 56.1467 87.5931 56.0867 87.9131 56.1C87.9931 56.2467 88.2465 56.7867 88.6731 57.72C89.1798 58.8133 89.6065 59.7133 89.9531 60.42C90.3131 61.1133 90.7465 61.86 91.2531 62.66C91.4798 61.8333 91.7331 61.06 92.0131 60.34C92.3065 59.6067 92.7398 58.5733 93.3131 57.24L93.6131 56.54C93.6931 56.38 93.8465 56.3 94.0731 56.3C94.2331 56.3 94.3731 56.34 94.4931 56.42C94.6131 56.5 94.6731 56.6133 94.6731 56.76C94.6731 56.8933 94.6065 57.0333 94.4731 57.18C94.3798 57.2733 94.2465 57.5467 94.0731 58C93.8998 58.44 93.7198 58.9333 93.5331 59.48C93.0265 60.92 92.5865 62.0467 92.2131 62.86C91.8398 63.66 91.4998 64.0467 91.1931 64.02ZM104.828 64.02C103.721 64.02 102.915 63.8133 102.408 63.4C101.915 62.9867 101.668 62.24 101.668 61.16L101.948 56.68V52.38C101.948 52.0467 102.015 51.8333 102.148 51.74C102.281 51.6333 102.575 51.58 103.028 51.58L104.388 51.62C106.095 51.7133 107.761 51.76 109.388 51.76C109.735 51.76 110.008 51.86 110.208 52.06C110.421 52.26 110.528 52.5333 110.528 52.88C110.528 52.9467 110.508 53 110.468 53.04C110.428 53.08 110.381 53.0933 110.328 53.08L109.388 52.72L103.128 52.88C103.048 52.88 103.001 52.8733 102.988 52.86C103.041 52.9667 103.068 53.06 103.068 53.14V56.68C103.681 56.72 104.275 56.74 104.848 56.74C105.835 56.74 106.921 56.6933 108.108 56.6C108.228 56.5867 108.408 56.5733 108.648 56.56C108.901 56.5333 109.041 56.5333 109.068 56.56C109.148 56.64 109.208 56.7133 109.248 56.78C109.288 56.8467 109.315 56.94 109.328 57.06C109.368 57.3533 108.921 57.5467 107.988 57.64C107.068 57.7333 105.835 57.8067 104.288 57.86C103.768 57.86 103.335 57.8733 102.988 57.9C102.828 58.3 102.748 58.94 102.748 59.82L102.768 61V62.3C102.981 62.4733 103.215 62.5867 103.468 62.64C103.721 62.6933 104.135 62.72 104.708 62.72C105.308 62.72 105.895 62.6867 106.468 62.62C107.055 62.5533 107.401 62.5133 107.508 62.5C108.628 62.3667 109.461 62.3 110.008 62.3C110.328 62.3 110.548 62.3333 110.668 62.4C110.801 62.4533 110.868 62.5533 110.868 62.7C110.868 63.58 109.081 64.02 105.508 64.02H104.828ZM112.697 61.64C112.884 61.4933 113.064 61.42 113.237 61.42C113.397 61.42 113.55 61.4667 113.697 61.56C113.857 61.6533 114.017 61.7733 114.177 61.92C114.337 62.0533 114.464 62.1533 114.557 62.22C114.864 62.46 115.284 62.6467 115.817 62.78C116.35 62.9133 116.917 62.98 117.517 62.98C118.197 62.98 118.804 62.8533 119.337 62.6C119.884 62.3333 120.157 61.98 120.157 61.54C120.157 61.14 120.01 60.8267 119.717 60.6C119.424 60.36 119.07 60.1867 118.657 60.08C118.244 59.9733 117.697 59.8733 117.017 59.78C116.097 59.6733 115.364 59.54 114.817 59.38C114.284 59.22 113.857 58.96 113.537 58.6C113.217 58.2267 113.057 57.7067 113.057 57.04C113.057 56.32 113.397 55.7867 114.077 55.44C114.757 55.08 115.537 54.9 116.417 54.9C117.217 54.9 117.897 55.0733 118.457 55.42C119.03 55.7533 119.324 56.2333 119.337 56.86C119.364 57.22 119.31 57.5067 119.177 57.72C119.044 57.92 118.884 58.02 118.697 58.02C118.59 58.02 118.497 57.98 118.417 57.9C118.35 57.82 118.317 57.7133 118.317 57.58C118.317 57.3667 118.39 57.1333 118.537 56.88C118.47 56.56 118.25 56.32 117.877 56.16C117.517 56 117.084 55.92 116.577 55.92C115.83 55.92 115.237 56.06 114.797 56.34C114.357 56.6067 114.137 56.9267 114.137 57.3C114.137 57.7 114.297 58.0067 114.617 58.22C114.937 58.4333 115.324 58.5867 115.777 58.68C116.244 58.76 116.904 58.84 117.757 58.92C118.464 59.0133 119.037 59.1267 119.477 59.26C119.93 59.3933 120.31 59.6533 120.617 60.04C120.924 60.4133 121.077 60.9533 121.077 61.66C121.077 62.3933 120.737 62.9733 120.057 63.4C119.377 63.8133 118.564 64.02 117.617 64.02C116.404 64.02 115.317 63.8133 114.357 63.4C113.41 62.9867 112.857 62.4 112.697 61.64ZM125.993 64C125.859 64.0267 125.773 64.04 125.733 64.04C125.319 64.04 125.033 63.7333 124.873 63.12C124.726 62.5067 124.653 61.6467 124.653 60.54C124.653 60.0867 124.666 59.38 124.693 58.42C124.719 57.8333 124.733 57.3933 124.733 57.1C123.093 57.1 122.273 56.9133 122.273 56.54C122.273 56.42 122.286 56.3267 122.313 56.26C122.353 56.1933 122.433 56.16 122.553 56.16L124.733 56.02C124.719 55.3667 124.686 54.6533 124.633 53.88C124.579 53.1867 124.546 52.5467 124.533 51.96C124.533 51.8133 124.593 51.7133 124.713 51.66C124.833 51.5933 124.959 51.56 125.093 51.56C125.253 51.56 125.386 51.6467 125.493 51.82C125.599 51.98 125.653 52.1467 125.653 52.32L125.793 55.98L127.453 56.06C127.706 56.0333 127.919 56.08 128.093 56.2C128.279 56.32 128.379 56.52 128.393 56.8C128.113 56.92 127.806 56.9933 127.473 57.02C127.139 57.0467 126.579 57.06 125.793 57.06C125.793 58.3 125.853 60.34 125.973 63.18C125.973 63.4733 125.973 63.68 125.973 63.8C125.986 63.9067 125.993 63.9733 125.993 64ZM134.631 64C133.245 64 132.038 63.76 131.011 63.28C129.998 62.7867 129.491 61.9267 129.491 60.7C129.491 60.26 129.625 59.8333 129.891 59.42C130.158 59.0067 130.551 58.6733 131.071 58.42C131.591 58.1533 132.225 58.02 132.971 58.02C133.545 58.02 134.031 58.0467 134.431 58.1C134.831 58.1533 135.291 58.3 135.811 58.54C136.331 58.78 136.871 59.16 137.431 59.68C137.218 58.76 136.898 57.9533 136.471 57.26C136.045 56.5667 135.565 56.0333 135.031 55.66C134.511 55.2733 133.998 55.08 133.491 55.08C133.251 55.08 133.025 55.1267 132.811 55.22C132.611 55.3 132.365 55.42 132.071 55.58C131.738 55.7933 131.491 55.9 131.331 55.9C131.265 55.9 131.205 55.88 131.151 55.84C131.111 55.7867 131.091 55.7267 131.091 55.66C131.091 55.1267 131.325 54.7133 131.791 54.42C132.271 54.1267 132.851 53.9933 133.531 54.02C134.465 54.0733 135.318 54.4733 136.091 55.22C136.865 55.9533 137.471 56.8667 137.911 57.96C138.365 59.0533 138.591 60.1267 138.591 61.18C138.591 61.3533 138.578 61.6 138.551 61.92L137.911 61.88C137.405 60.8533 136.751 60.1267 135.951 59.7C135.165 59.26 134.371 59.04 133.571 59.04C132.545 59.04 131.811 59.1933 131.371 59.5C130.931 59.8067 130.711 60.2533 130.711 60.84C130.711 61.4533 131.018 61.9467 131.631 62.32C132.245 62.6933 133.031 62.88 133.991 62.88C134.525 62.88 134.951 62.8533 135.271 62.8C135.591 62.7333 135.925 62.6467 136.271 62.54C136.551 62.4467 136.798 62.38 137.011 62.34C137.225 62.3 137.498 62.28 137.831 62.28C138.205 62.28 138.438 62.3067 138.531 62.36C138.638 62.4133 138.691 62.5333 138.691 62.72C138.691 62.8533 138.418 63.02 137.871 63.22C137.325 63.42 136.711 63.6 136.031 63.76C135.351 63.92 134.885 64 134.631 64ZM143.512 64C143.379 64.0267 143.292 64.04 143.252 64.04C142.839 64.04 142.552 63.7333 142.392 63.12C142.246 62.5067 142.172 61.6467 142.172 60.54C142.172 60.0867 142.186 59.38 142.212 58.42C142.239 57.8333 142.252 57.3933 142.252 57.1C140.612 57.1 139.792 56.9133 139.792 56.54C139.792 56.42 139.806 56.3267 139.832 56.26C139.872 56.1933 139.952 56.16 140.072 56.16L142.252 56.02C142.239 55.3667 142.206 54.6533 142.152 53.88C142.099 53.1867 142.066 52.5467 142.052 51.96C142.052 51.8133 142.112 51.7133 142.232 51.66C142.352 51.5933 142.479 51.56 142.612 51.56C142.772 51.56 142.906 51.6467 143.012 51.82C143.119 51.98 143.172 52.1467 143.172 52.32L143.312 55.98L144.972 56.06C145.226 56.0333 145.439 56.08 145.612 56.2C145.799 56.32 145.899 56.52 145.912 56.8C145.632 56.92 145.326 56.9933 144.992 57.02C144.659 57.0467 144.099 57.06 143.312 57.06C143.312 58.3 143.372 60.34 143.492 63.18C143.492 63.4733 143.492 63.68 143.492 63.8C143.506 63.9067 143.512 63.9733 143.512 64ZM151.731 64C150.878 64 150.091 63.8333 149.371 63.5C148.651 63.1667 148.078 62.6933 147.651 62.08C147.224 61.4667 147.011 60.76 147.011 59.96C147.011 59.0667 147.178 58.2333 147.511 57.46C147.844 56.6733 148.331 56.0467 148.971 55.58C149.624 55.1 150.384 54.86 151.251 54.86C152.158 54.86 152.844 55.1533 153.311 55.74C153.778 56.3133 153.998 57.04 153.971 57.92C153.971 58.7067 153.658 59.3067 153.031 59.72C152.418 60.1333 151.631 60.34 150.671 60.34C150.524 60.34 150.304 60.3267 150.011 60.3C149.531 60.2467 149.191 60.1733 148.991 60.08C148.791 59.9867 148.691 59.8 148.691 59.52C148.691 59.4267 148.718 59.36 148.771 59.32C148.824 59.2667 148.931 59.24 149.091 59.24C149.264 59.24 149.571 59.28 150.011 59.36C150.438 59.44 150.818 59.48 151.151 59.48C152.378 59.48 152.991 58.9467 152.991 57.88C152.991 57.24 152.871 56.7333 152.631 56.36C152.404 55.9867 151.998 55.8 151.411 55.8C150.771 55.8 150.198 55.9733 149.691 56.32C149.184 56.6533 148.791 57.0933 148.511 57.64C148.244 58.1867 148.111 58.7667 148.111 59.38C148.111 60.4333 148.404 61.3 148.991 61.98C149.578 62.6467 150.484 62.98 151.711 62.98C151.858 62.98 152.104 62.9667 152.451 62.94C152.598 62.9267 152.778 62.8867 152.991 62.82C153.204 62.7533 153.358 62.7067 153.451 62.68C154.024 62.48 154.444 62.38 154.711 62.38C154.911 62.38 155.064 62.4333 155.171 62.54C154.838 63.0467 154.338 63.42 153.671 63.66C153.018 63.8867 152.371 64 151.731 64Z" fill="black"/>
</svg>
